<?xml version="1.0" encoding="UTF-8"?>
<svg id="Layer_1" data-name="Layer 1" xmlns="http://www.w3.org/2000/svg" viewBox="0 0 155.7 34">
  <path d="M19.6,18.5c-.83,1.43-2.66,1.93-4.1,1.1-1.43-.83-1.93-2.66-1.1-4.1.83-1.43,2.66-1.93,4.1-1.1s1.93,2.66,1.1,4.1Z"/>
  <g>
    <path d="M23.23,10.21c-.55.96-1.78,1.28-2.73.73-.96-.55-1.28-1.78-.73-2.73.55-.96,1.78-1.28,2.73-.73.96.55,1.28,1.78.73,2.73Z"/>
    <path d="M19.77,25.79c-.55-.96-.22-2.18.73-2.73.96-.55,2.18-.22,2.73.73.55.96.22,2.18-.73,2.73-.96.55-2.18.22-2.73-.73Z"/>
    <path d="M26,19c-1.1,0-2-.9-2-2s.9-2,2-2,2,.9,2,2-.9,2-2,2Z"/>
    <path d="M14.23,25.79c-.55.96-1.78,1.28-2.73.73-.96-.55-1.28-1.78-.73-2.73.55-.96,1.78-1.28,2.73-.73.96.55,1.28,1.78.73,2.73Z"/>
    <path d="M10.77,10.21c-.55-.96-.22-2.18.73-2.73.96-.55,2.18-.22,2.73.73.55.96.22,2.18-.73,2.73-.96.55-2.18.22-2.73-.73Z"/>
    <path d="M8,19c-1.1,0-2-.9-2-2s.9-2,2-2,2,.9,2,2-.9,2-2,2Z"/>
  </g>
  <g>
    <path d="M25.87,3.64c-.28.48-.89.64-1.37.37-.48-.28-.64-.89-.37-1.37.28-.48.89-.64,1.37-.37s.64.89.37,1.37Z"/>
    <path d="M33,18c-.55,0-1-.45-1-1s.45-1,1-1,1,.45,1,1-.45,1-1,1Z"/>
    <path d="M31.36,9.87c-.48.28-1.09.11-1.37-.37-.28-.48-.11-1.09.37-1.37s1.09-.11,1.37.37c.28.48.11,1.09-.37,1.37Z"/>
    <path d="M30.36,25.87c-.48-.28-.64-.89-.37-1.37.28-.48.89-.64,1.37-.37.48.28.64.89.37,1.37-.28.48-.89.64-1.37.37Z"/>
    <path d="M16,33c0-.55.45-1,1-1s1,.45,1,1-.45,1-1,1-1-.45-1-1Z"/>
    <path d="M24.13,31.36c-.28-.48-.11-1.09.37-1.37.48-.28,1.09-.11,1.37.37s.11,1.09-.37,1.37c-.48.28-1.09.11-1.37-.37Z"/>
    <path d="M9.87,31.36c-.28.48-.89.64-1.37.37-.48-.28-.64-.89-.37-1.37.28-.48.89-.64,1.37-.37.48.28.64.89.37,1.37Z"/>
    <path d="M1,18C.45,18,0,17.55,0,17s.45-1,1-1,1,.45,1,1-.45,1-1,1Z"/>
    <path d="M3.64,25.87c-.48.28-1.09.11-1.37-.37s-.11-1.09.37-1.37c.48-.28,1.09-.11,1.37.37.28.48.11,1.09-.37,1.37Z"/>
    <path d="M2.64,9.87c-.48-.28-.64-.89-.37-1.37.28-.48.89-.64,1.37-.37.48.28.64.89.37,1.37-.28.48-.89.64-1.37.37Z"/>
    <path d="M16,1C16,.45,16.45,0,17,0s1,.45,1,1-.45,1-1,1-1-.45-1-1Z"/>
    <path d="M8.13,3.64c-.28-.48-.11-1.09.37-1.37.48-.28,1.09-.11,1.37.37.28.48.11,1.09-.37,1.37-.48.28-1.09.11-1.37-.37Z"/>
  </g>
  <g id="text475">
    <path d="M51.42,24.51c-1.2,0-2.23-.2-3.09-.6s-1.52-.97-1.98-1.71c-.46-.74-.69-1.63-.69-2.68h2.53c0,.59.14,1.09.4,1.51.26.42.63.74,1.11.96.49.22,1.07.33,1.74.33.61,0,1.13-.08,1.58-.25.46-.18.81-.42,1.05-.73.25-.32.38-.69.38-1.11,0-.35-.09-.64-.27-.9-.18-.25-.47-.48-.87-.66-.39-.19-.91-.36-1.56-.51l-1.56-.35c-1.45-.33-2.52-.82-3.21-1.47-.69-.65-1.04-1.49-1.04-2.51,0-.87.22-1.63.66-2.28.45-.65,1.07-1.16,1.88-1.51.81-.36,1.74-.55,2.81-.55s2.02.19,2.81.57c.79.37,1.41.9,1.85,1.6.44.69.68,1.52.7,2.48h-2.45c-.05-.77-.34-1.37-.86-1.81-.52-.44-1.21-.65-2.06-.65-.53,0-1.01.09-1.43.26-.42.17-.74.41-.98.71-.23.3-.35.65-.35,1.04,0,.33.09.61.26.85.18.23.47.44.85.62.39.18.9.35,1.53.49l1.47.34c.76.17,1.41.38,1.95.62.55.24,1.01.53,1.37.86.36.33.62.71.79,1.14.18.43.26.91.26,1.45,0,.9-.23,1.69-.68,2.35-.46.66-1.1,1.18-1.94,1.54-.84.36-1.83.54-2.98.54Z"/>
    <path d="M59.99,24.28v-10.31h2.38v2.25h-.19c.19-.55.45-1,.77-1.37.33-.36.71-.63,1.14-.81.44-.18.9-.27,1.38-.27.79,0,1.48.23,2.05.68.57.45.92,1.04,1.05,1.77h-.32c.14-.49.37-.91.69-1.28.33-.37.74-.66,1.21-.86.48-.21,1-.31,1.56-.31.65,0,1.24.14,1.76.42.52.28.93.7,1.24,1.25.31.55.46,1.23.46,2.04v6.81h-2.47v-6.46c0-.68-.19-1.18-.57-1.49-.37-.32-.82-.48-1.35-.48-.41,0-.77.09-1.07.27-.3.18-.53.42-.7.73-.16.31-.24.68-.24,1.09v6.33h-2.39v-6.57c0-.56-.18-1.01-.53-1.35s-.8-.51-1.35-.51c-.36,0-.71.09-1.03.26-.31.17-.56.42-.75.76-.19.34-.28.76-.28,1.25v6.15h-2.46Z"/>
    <path d="M81.67,24.44c-.68,0-1.3-.11-1.84-.34-.53-.23-.96-.57-1.27-1.04-.31-.46-.46-1.04-.46-1.72,0-.59.11-1.07.33-1.45.22-.38.52-.69.9-.92.38-.23.81-.4,1.3-.52.49-.12,1-.21,1.52-.26.64-.07,1.14-.13,1.51-.19.38-.06.65-.14.81-.24.16-.11.24-.28.24-.52v-.08c0-.3-.07-.56-.22-.78-.15-.23-.37-.4-.65-.53-.28-.13-.62-.2-1.01-.2-.4,0-.75.07-1.05.2-.3.12-.54.3-.71.53-.18.22-.28.48-.3.77h-2.37c.05-.68.25-1.28.62-1.79.37-.51.89-.91,1.54-1.19.66-.29,1.44-.43,2.33-.43.67,0,1.27.08,1.8.24.53.16.98.39,1.35.69.37.31.65.67.84,1.1.2.43.29.91.29,1.45v7.03h-2.42v-1.46h-.04c-.16.31-.37.58-.63.83-.26.24-.59.43-.98.58-.39.14-.87.21-1.43.21ZM82.28,22.62c.54,0,.99-.1,1.36-.29.36-.2.64-.46.82-.78.19-.33.28-.69.28-1.08v-1.11c-.08.05-.19.09-.34.14-.15.05-.33.09-.54.14-.2.04-.42.08-.66.12-.23.04-.48.08-.73.12-.35.05-.68.13-.98.24-.29.11-.53.27-.71.47-.18.2-.26.45-.26.76,0,.27.07.5.21.69.15.2.35.35.62.45.27.1.58.15.94.15Z"/>
    <path d="M90.51,24.28v-10.31h2.37v1.71h.03c.19-.59.49-1.04.89-1.35.41-.31.95-.46,1.61-.46.17,0,.32,0,.45,0,.14,0,.25.02.35.03v2.19c-.08-.01-.24-.03-.46-.05-.22-.02-.46-.03-.7-.03-.38,0-.74.09-1.05.27-.31.18-.56.44-.75.8-.18.36-.27.81-.27,1.35v5.84h-2.46Z"/>
    <path d="M104.6,13.96v1.98h-6.37v-1.98h6.37ZM100.03,11.15h2.47v10.17c0,.36.07.62.22.76s.42.21.82.21h1.05v1.98h-1.48c-1.05,0-1.83-.21-2.33-.63-.5-.43-.75-1.08-.75-1.96v-10.53Z"/>
    <path d="M112.69,24.51c-1.2,0-2.23-.2-3.09-.6s-1.52-.97-1.98-1.71-.69-1.63-.69-2.68h2.53c0,.59.14,1.09.4,1.51.26.42.63.74,1.11.96.49.22,1.07.33,1.74.33.61,0,1.13-.08,1.58-.25.46-.18.81-.42,1.05-.73.25-.32.38-.69.38-1.11,0-.35-.09-.64-.27-.9s-.47-.48-.87-.66c-.39-.19-.91-.36-1.56-.51l-1.56-.35c-1.45-.33-2.52-.82-3.21-1.47-.69-.65-1.04-1.49-1.04-2.51,0-.87.22-1.63.66-2.28.45-.65,1.07-1.16,1.88-1.51.81-.36,1.74-.55,2.81-.55s2.02.19,2.81.57c.79.37,1.41.9,1.85,1.6.44.69.68,1.52.7,2.48h-2.45c-.05-.77-.34-1.37-.86-1.81-.52-.44-1.21-.65-2.06-.65-.53,0-1.01.09-1.43.26-.42.17-.74.41-.98.71-.23.3-.35.65-.35,1.04,0,.33.09.61.26.85.18.23.47.44.85.62.39.18.9.35,1.53.49l1.47.34c.76.17,1.41.38,1.95.62.55.24,1.01.53,1.37.86s.62.71.79,1.14c.18.43.26.91.26,1.45,0,.9-.23,1.69-.68,2.35s-1.1,1.18-1.94,1.54c-.84.36-1.83.54-2.98.54Z"/>
    <path d="M126.7,13.96v1.98h-6.37v-1.98h6.37ZM122.13,11.15h2.47v10.17c0,.36.07.62.22.76.15.14.42.21.82.21h1.05v1.98h-1.48c-1.05,0-1.83-.21-2.33-.63-.5-.43-.75-1.08-.75-1.96v-10.53Z"/>
    <path d="M132.78,24.44c-.68,0-1.3-.11-1.84-.34-.53-.23-.96-.57-1.27-1.04-.31-.46-.46-1.04-.46-1.72,0-.59.11-1.07.33-1.45.22-.38.52-.69.9-.92s.81-.4,1.3-.52c.49-.12,1-.21,1.52-.26.64-.07,1.14-.13,1.51-.19.38-.06.65-.14.81-.24.16-.11.24-.28.24-.52v-.08c0-.3-.07-.56-.22-.78-.15-.23-.37-.4-.65-.53-.28-.13-.62-.2-1.01-.2-.4,0-.75.07-1.05.2-.3.12-.54.3-.71.53-.18.22-.28.48-.3.77h-2.37c.05-.68.25-1.28.62-1.79.37-.51.89-.91,1.54-1.19.66-.29,1.44-.43,2.33-.43.67,0,1.27.08,1.8.24.53.16.98.39,1.35.69.37.31.65.67.84,1.1.2.43.29.91.29,1.45v7.03h-2.42v-1.46h-.04c-.16.31-.37.58-.63.83-.26.24-.59.43-.98.58-.39.14-.87.21-1.43.21h0ZM133.39,22.62c.54,0,.99-.1,1.36-.29s.64-.46.82-.78c.19-.33.28-.69.28-1.08v-1.11c-.08.05-.19.09-.34.14-.15.05-.33.09-.54.14-.2.04-.42.08-.66.12-.23.04-.48.08-.73.12-.35.05-.68.13-.98.24-.29.11-.53.27-.71.47-.18.2-.26.45-.26.76,0,.27.07.5.21.69.15.2.35.35.62.45.27.1.58.15.94.15h0Z"/>
    <path d="M141.62,24.28v-10.31h2.37v1.71h.03c.19-.59.49-1.04.89-1.35.41-.31.95-.46,1.61-.46.17,0,.32,0,.45,0,.14,0,.25.02.35.03v2.19c-.08-.01-.24-.03-.46-.05-.22-.02-.46-.03-.7-.03-.38,0-.74.09-1.05.27-.31.18-.56.44-.75.8-.18.36-.27.81-.27,1.35v5.84h-2.46Z"/>
    <path d="M155.7,13.96v1.98h-6.37v-1.98h6.37ZM151.13,11.15h2.47v10.17c0,.36.07.62.22.76s.42.21.82.21h1.05v1.98h-1.48c-1.05,0-1.83-.21-2.33-.63-.5-.43-.75-1.08-.75-1.96v-10.53Z"/>
  </g>
</svg>