<?xml version="1.0" encoding="UTF-8"?>
<svg id="Layer_1" data-name="Layer 1" xmlns="http://www.w3.org/2000/svg" viewBox="0 0 34 34">
  <path d="M19.6,18.5c-.83,1.43-2.66,1.93-4.1,1.1-1.43-.83-1.93-2.66-1.1-4.1.83-1.43,2.66-1.93,4.1-1.1s1.93,2.66,1.1,4.1Z"/>
  <g>
    <path d="M23.23,10.21c-.55.96-1.78,1.28-2.73.73-.96-.55-1.28-1.78-.73-2.73.55-.96,1.78-1.28,2.73-.73.96.55,1.28,1.78.73,2.73Z"/>
    <path d="M19.77,25.79c-.55-.96-.22-2.18.73-2.73.96-.55,2.18-.22,2.73.73.55.96.22,2.18-.73,2.73-.96.55-2.18.22-2.73-.73Z"/>
    <path d="M26,19c-1.1,0-2-.9-2-2s.9-2,2-2,2,.9,2,2-.9,2-2,2Z"/>
    <path d="M14.23,25.79c-.55.96-1.78,1.28-2.73.73-.96-.55-1.28-1.78-.73-2.73.55-.96,1.78-1.28,2.73-.73.96.55,1.28,1.78.73,2.73Z"/>
    <path d="M10.77,10.21c-.55-.96-.22-2.18.73-2.73.96-.55,2.18-.22,2.73.73.55.96.22,2.18-.73,2.73-.96.55-2.18.22-2.73-.73Z"/>
    <path d="M8,19c-1.1,0-2-.9-2-2s.9-2,2-2,2,.9,2,2-.9,2-2,2Z"/>
  </g>
  <g>
    <path d="M25.87,3.64c-.28.48-.89.64-1.37.37-.48-.28-.64-.89-.37-1.37.28-.48.89-.64,1.37-.37s.64.89.37,1.37Z"/>
    <path d="M33,18c-.55,0-1-.45-1-1s.45-1,1-1,1,.45,1,1-.45,1-1,1Z"/>
    <path d="M31.36,9.87c-.48.28-1.09.11-1.37-.37-.28-.48-.11-1.09.37-1.37s1.09-.11,1.37.37c.28.48.11,1.09-.37,1.37Z"/>
    <path d="M30.36,25.87c-.48-.28-.64-.89-.37-1.37.28-.48.89-.64,1.37-.37.48.28.64.89.37,1.37-.28.48-.89.64-1.37.37Z"/>
    <path d="M16,33c0-.55.45-1,1-1s1,.45,1,1-.45,1-1,1-1-.45-1-1Z"/>
    <path d="M24.13,31.36c-.28-.48-.11-1.09.37-1.37.48-.28,1.09-.11,1.37.37s.11,1.09-.37,1.37c-.48.28-1.09.11-1.37-.37Z"/>
    <path d="M9.87,31.36c-.28.48-.89.64-1.37.37-.48-.28-.64-.89-.37-1.37.28-.48.89-.64,1.37-.37.48.28.64.89.37,1.37Z"/>
    <path d="M1,18C.45,18,0,17.55,0,17s.45-1,1-1,1,.45,1,1-.45,1-1,1Z"/>
    <path d="M3.64,25.87c-.48.28-1.09.11-1.37-.37s-.11-1.09.37-1.37c.48-.28,1.09-.11,1.37.37.28.48.11,1.09-.37,1.37Z"/>
    <path d="M2.64,9.87c-.48-.28-.64-.89-.37-1.37.28-.48.89-.64,1.37-.37.48.28.64.89.37,1.37-.28.48-.89.64-1.37.37Z"/>
    <path d="M16,1C16,.45,16.45,0,17,0s1,.45,1,1-.45,1-1,1-1-.45-1-1Z"/>
    <path d="M8.13,3.64c-.28-.48-.11-1.09.37-1.37.48-.28,1.09-.11,1.37.37.28.48.11,1.09-.37,1.37-.48.28-1.09.11-1.37-.37Z"/>
  </g>
</svg>